<svg width="100" height="100" viewBox="0 0 100 100" fill="none" xmlns="http://www.w3.org/2000/svg">
<g clip-path="url(#clip0_469_417)">
<path d="M100 0H0V100H100V0Z" fill="white"/>
<mask id="mask0_469_417" style="mask-type:luminance" maskUnits="userSpaceOnUse" x="6" y="6" width="88" height="88">
<path d="M9.57031 34.1797H6.05469V37.6953H9.57031V34.1797Z" fill="white"/>
<path d="M9.57031 37.6953H6.05469V41.2109H9.57031V37.6953Z" fill="white"/>
<path d="M9.57031 41.2109H6.05469V44.7266H9.57031V41.2109Z" fill="white"/>
<path d="M9.57031 51.7578H6.05469V55.2734H9.57031V51.7578Z" fill="white"/>
<path d="M9.57031 55.2734H6.05469V58.7891H9.57031V55.2734Z" fill="white"/>
<path d="M9.57031 58.7891H6.05469V62.3047H9.57031V58.7891Z" fill="white"/>
<path d="M13.0859 34.1797H9.57031V37.6953H13.0859V34.1797Z" fill="white"/>
<path d="M13.0859 37.6953H9.57031V41.2109H13.0859V37.6953Z" fill="white"/>
<path d="M13.0859 41.2109H9.57031V44.7266H13.0859V41.2109Z" fill="white"/>
<path d="M13.0859 44.7266H9.57031V48.2422H13.0859V44.7266Z" fill="white"/>
<path d="M13.0859 58.7891H9.57031V62.3047H13.0859V58.7891Z" fill="white"/>
<path d="M16.6016 44.7266H13.0859V48.2422H16.6016V44.7266Z" fill="white"/>
<path d="M16.6016 48.2422H13.0859V51.7578H16.6016V48.2422Z" fill="white"/>
<path d="M16.6016 55.2734H13.0859V58.7891H16.6016V55.2734Z" fill="white"/>
<path d="M16.6016 62.3047H13.0859V65.8203H16.6016V62.3047Z" fill="white"/>
<path d="M20.1172 37.6953H16.6016V41.2109H20.1172V37.6953Z" fill="white"/>
<path d="M20.1172 41.2109H16.6016V44.7266H20.1172V41.2109Z" fill="white"/>
<path d="M20.1172 48.2422H16.6016V51.7578H20.1172V48.2422Z" fill="white"/>
<path d="M20.1172 55.2734H16.6016V58.7891H20.1172V55.2734Z" fill="white"/>
<path d="M20.1172 58.7891H16.6016V62.3047H20.1172V58.7891Z" fill="white"/>
<path d="M23.6328 37.6953H20.1172V41.2109H23.6328V37.6953Z" fill="white"/>
<path d="M23.6328 44.7266H20.1172V48.2422H23.6328V44.7266Z" fill="white"/>
<path d="M23.6328 51.7578H20.1172V55.2734H23.6328V51.7578Z" fill="white"/>
<path d="M23.6328 55.2734H20.1172V58.7891H23.6328V55.2734Z" fill="white"/>
<path d="M23.6328 58.7891H20.1172V62.3047H23.6328V58.7891Z" fill="white"/>
<path d="M27.1484 37.6953H23.6328V41.2109H27.1484V37.6953Z" fill="white"/>
<path d="M27.1484 48.2422H23.6328V51.7578H27.1484V48.2422Z" fill="white"/>
<path d="M27.1484 51.7578H23.6328V55.2734H27.1484V51.7578Z" fill="white"/>
<path d="M27.1484 55.2734H23.6328V58.7891H27.1484V55.2734Z" fill="white"/>
<path d="M27.1484 62.3047H23.6328V65.8203H27.1484V62.3047Z" fill="white"/>
<path d="M30.6641 34.1797H27.1484V37.6953H30.6641V34.1797Z" fill="white"/>
<path d="M30.6641 41.2109H27.1484V44.7266H30.6641V41.2109Z" fill="white"/>
<path d="M30.6641 48.2422H27.1484V51.7578H30.6641V48.2422Z" fill="white"/>
<path d="M30.6641 55.2734H27.1484V58.7891H30.6641V55.2734Z" fill="white"/>
<path d="M30.6641 62.3047H27.1484V65.8203H30.6641V62.3047Z" fill="white"/>
<path d="M34.1797 41.2109H30.6641V44.7266H34.1797V41.2109Z" fill="white"/>
<path d="M34.1797 44.7266H30.6641V48.2422H34.1797V44.7266Z" fill="white"/>
<path d="M34.1797 51.7578H30.6641V55.2734H34.1797V51.7578Z" fill="white"/>
<path d="M37.6953 9.57031H34.1797V13.0859H37.6953V9.57031Z" fill="white"/>
<path d="M37.6953 27.1484H34.1797V30.6641H37.6953V27.1484Z" fill="white"/>
<path d="M37.6953 30.6641H34.1797V34.1797H37.6953V30.6641Z" fill="white"/>
<path d="M37.6953 34.1797H34.1797V37.6953H37.6953V34.1797Z" fill="white"/>
<path d="M37.6953 37.6953H34.1797V41.2109H37.6953V37.6953Z" fill="white"/>
<path d="M37.6953 41.2109H34.1797V44.7266H37.6953V41.2109Z" fill="white"/>
<path d="M37.6953 44.7266H34.1797V48.2422H37.6953V44.7266Z" fill="white"/>
<path d="M37.6953 48.2422H34.1797V51.7578H37.6953V48.2422Z" fill="white"/>
<path d="M37.6953 55.2734H34.1797V58.7891H37.6953V55.2734Z" fill="white"/>
<path d="M37.6953 58.7891H34.1797V62.3047H37.6953V58.7891Z" fill="white"/>
<path d="M37.6953 65.8203H34.1797V69.3359H37.6953V65.8203Z" fill="white"/>
<path d="M37.6953 86.9141H34.1797V90.4297H37.6953V86.9141Z" fill="white"/>
<path d="M37.6953 90.4297H34.1797V93.9453H37.6953V90.4297Z" fill="white"/>
<path d="M41.2109 6.05469H37.6953V9.57031H41.2109V6.05469Z" fill="white"/>
<path d="M41.2109 13.0859H37.6953V16.6016H41.2109V13.0859Z" fill="white"/>
<path d="M41.2109 16.6016H37.6953V20.1172H41.2109V16.6016Z" fill="white"/>
<path d="M41.2109 20.1172H37.6953V23.6328H41.2109V20.1172Z" fill="white"/>
<path d="M41.2109 23.6328H37.6953V27.1484H41.2109V23.6328Z" fill="white"/>
<path d="M41.2109 30.6641H37.6953V34.1797H41.2109V30.6641Z" fill="white"/>
<path d="M41.2109 34.1797H37.6953V37.6953H41.2109V34.1797Z" fill="white"/>
<path d="M41.2109 37.6953H37.6953V41.2109H41.2109V37.6953Z" fill="white"/>
<path d="M41.2109 44.7266H37.6953V48.2422H41.2109V44.7266Z" fill="white"/>
<path d="M41.2109 55.2734H37.6953V58.7891H41.2109V55.2734Z" fill="white"/>
<path d="M41.2109 72.8516H37.6953V76.3672H41.2109V72.8516Z" fill="white"/>
<path d="M41.2109 79.8828H37.6953V83.3984H41.2109V79.8828Z" fill="white"/>
<path d="M41.2109 83.3984H37.6953V86.9141H41.2109V83.3984Z" fill="white"/>
<path d="M41.2109 86.9141H37.6953V90.4297H41.2109V86.9141Z" fill="white"/>
<path d="M41.2109 90.4297H37.6953V93.9453H41.2109V90.4297Z" fill="white"/>
<path d="M44.7266 20.1172H41.2109V23.6328H44.7266V20.1172Z" fill="white"/>
<path d="M44.7266 23.6328H41.2109V27.1484H44.7266V23.6328Z" fill="white"/>
<path d="M44.7266 27.1484H41.2109V30.6641H44.7266V27.1484Z" fill="white"/>
<path d="M44.7266 30.6641H41.2109V34.1797H44.7266V30.6641Z" fill="white"/>
<path d="M44.7266 65.8203H41.2109V69.3359H44.7266V65.8203Z" fill="white"/>
<path d="M44.7266 69.3359H41.2109V72.8516H44.7266V69.3359Z" fill="white"/>
<path d="M44.7266 72.8516H41.2109V76.3672H44.7266V72.8516Z" fill="white"/>
<path d="M44.7266 76.3672H41.2109V79.8828H44.7266V76.3672Z" fill="white"/>
<path d="M44.7266 79.8828H41.2109V83.3984H44.7266V79.8828Z" fill="white"/>
<path d="M44.7266 83.3984H41.2109V86.9141H44.7266V83.3984Z" fill="white"/>
<path d="M48.2422 9.57031H44.7266V13.0859H48.2422V9.57031Z" fill="white"/>
<path d="M48.2422 23.6328H44.7266V27.1484H48.2422V23.6328Z" fill="white"/>
<path d="M48.2422 44.7266H44.7266V48.2422H48.2422V44.7266Z" fill="white"/>
<path d="M48.2422 48.2422H44.7266V51.7578H48.2422V48.2422Z" fill="white"/>
<path d="M48.2422 55.2734H44.7266V58.7891H48.2422V55.2734Z" fill="white"/>
<path d="M48.2422 58.7891H44.7266V62.3047H48.2422V58.7891Z" fill="white"/>
<path d="M48.2422 62.3047H44.7266V65.8203H48.2422V62.3047Z" fill="white"/>
<path d="M48.2422 65.8203H44.7266V69.3359H48.2422V65.8203Z" fill="white"/>
<path d="M48.2422 76.3672H44.7266V79.8828H48.2422V76.3672Z" fill="white"/>
<path d="M48.2422 79.8828H44.7266V83.3984H48.2422V79.8828Z" fill="white"/>
<path d="M48.2422 83.3984H44.7266V86.9141H48.2422V83.3984Z" fill="white"/>
<path d="M48.2422 86.9141H44.7266V90.4297H48.2422V86.9141Z" fill="white"/>
<path d="M51.7578 6.05469H48.2422V9.57031H51.7578V6.05469Z" fill="white"/>
<path d="M51.7578 13.0859H48.2422V16.6016H51.7578V13.0859Z" fill="white"/>
<path d="M51.7578 23.6328H48.2422V27.1484H51.7578V23.6328Z" fill="white"/>
<path d="M51.7578 27.1484H48.2422V30.6641H51.7578V27.1484Z" fill="white"/>
<path d="M51.7578 34.1797H48.2422V37.6953H51.7578V34.1797Z" fill="white"/>
<path d="M51.7578 41.2109H48.2422V44.7266H51.7578V41.2109Z" fill="white"/>
<path d="M51.7578 51.7578H48.2422V55.2734H51.7578V51.7578Z" fill="white"/>
<path d="M51.7578 55.2734H48.2422V58.7891H51.7578V55.2734Z" fill="white"/>
<path d="M51.7578 65.8203H48.2422V69.3359H51.7578V65.8203Z" fill="white"/>
<path d="M51.7578 72.8516H48.2422V76.3672H51.7578V72.8516Z" fill="white"/>
<path d="M51.7578 76.3672H48.2422V79.8828H51.7578V76.3672Z" fill="white"/>
<path d="M51.7578 79.8828H48.2422V83.3984H51.7578V79.8828Z" fill="white"/>
<path d="M51.7578 86.9141H48.2422V90.4297H51.7578V86.9141Z" fill="white"/>
<path d="M55.2734 6.05469H51.7578V9.57031H55.2734V6.05469Z" fill="white"/>
<path d="M55.2734 16.6016H51.7578V20.1172H55.2734V16.6016Z" fill="white"/>
<path d="M55.2734 20.1172H51.7578V23.6328H55.2734V20.1172Z" fill="white"/>
<path d="M55.2734 30.6641H51.7578V34.1797H55.2734V30.6641Z" fill="white"/>
<path d="M55.2734 34.1797H51.7578V37.6953H55.2734V34.1797Z" fill="white"/>
<path d="M55.2734 37.6953H51.7578V41.2109H55.2734V37.6953Z" fill="white"/>
<path d="M55.2734 44.7266H51.7578V48.2422H55.2734V44.7266Z" fill="white"/>
<path d="M55.2734 48.2422H51.7578V51.7578H55.2734V48.2422Z" fill="white"/>
<path d="M55.2734 51.7578H51.7578V55.2734H55.2734V51.7578Z" fill="white"/>
<path d="M55.2734 55.2734H51.7578V58.7891H55.2734V55.2734Z" fill="white"/>
<path d="M55.2734 65.8203H51.7578V69.3359H55.2734V65.8203Z" fill="white"/>
<path d="M55.2734 69.3359H51.7578V72.8516H55.2734V69.3359Z" fill="white"/>
<path d="M55.2734 76.3672H51.7578V79.8828H55.2734V76.3672Z" fill="white"/>
<path d="M55.2734 79.8828H51.7578V83.3984H55.2734V79.8828Z" fill="white"/>
<path d="M55.2734 86.9141H51.7578V90.4297H55.2734V86.9141Z" fill="white"/>
<path d="M58.7891 6.05469H55.2734V9.57031H58.7891V6.05469Z" fill="white"/>
<path d="M58.7891 20.1172H55.2734V23.6328H58.7891V20.1172Z" fill="white"/>
<path d="M58.7891 27.1484H55.2734V30.6641H58.7891V27.1484Z" fill="white"/>
<path d="M58.7891 34.1797H55.2734V37.6953H58.7891V34.1797Z" fill="white"/>
<path d="M58.7891 41.2109H55.2734V44.7266H58.7891V41.2109Z" fill="white"/>
<path d="M58.7891 44.7266H55.2734V48.2422H58.7891V44.7266Z" fill="white"/>
<path d="M58.7891 48.2422H55.2734V51.7578H58.7891V48.2422Z" fill="white"/>
<path d="M58.7891 51.7578H55.2734V55.2734H58.7891V51.7578Z" fill="white"/>
<path d="M58.7891 55.2734H55.2734V58.7891H58.7891V55.2734Z" fill="white"/>
<path d="M58.7891 58.7891H55.2734V62.3047H58.7891V58.7891Z" fill="white"/>
<path d="M58.7891 62.3047H55.2734V65.8203H58.7891V62.3047Z" fill="white"/>
<path d="M58.7891 65.8203H55.2734V69.3359H58.7891V65.8203Z" fill="white"/>
<path d="M58.7891 72.8516H55.2734V76.3672H58.7891V72.8516Z" fill="white"/>
<path d="M62.3047 6.05469H58.7891V9.57031H62.3047V6.05469Z" fill="white"/>
<path d="M62.3047 16.6016H58.7891V20.1172H62.3047V16.6016Z" fill="white"/>
<path d="M62.3047 23.6328H58.7891V27.1484H62.3047V23.6328Z" fill="white"/>
<path d="M62.3047 30.6641H58.7891V34.1797H62.3047V30.6641Z" fill="white"/>
<path d="M62.3047 34.1797H58.7891V37.6953H62.3047V34.1797Z" fill="white"/>
<path d="M62.3047 37.6953H58.7891V41.2109H62.3047V37.6953Z" fill="white"/>
<path d="M62.3047 48.2422H58.7891V51.7578H62.3047V48.2422Z" fill="white"/>
<path d="M62.3047 51.7578H58.7891V55.2734H62.3047V51.7578Z" fill="white"/>
<path d="M62.3047 62.3047H58.7891V65.8203H62.3047V62.3047Z" fill="white"/>
<path d="M62.3047 65.8203H58.7891V69.3359H62.3047V65.8203Z" fill="white"/>
<path d="M62.3047 90.4297H58.7891V93.9453H62.3047V90.4297Z" fill="white"/>
<path d="M65.8203 6.05469H62.3047V9.57031H65.8203V6.05469Z" fill="white"/>
<path d="M65.8203 13.0859H62.3047V16.6016H65.8203V13.0859Z" fill="white"/>
<path d="M65.8203 20.1172H62.3047V23.6328H65.8203V20.1172Z" fill="white"/>
<path d="M65.8203 23.6328H62.3047V27.1484H65.8203V23.6328Z" fill="white"/>
<path d="M65.8203 27.1484H62.3047V30.6641H65.8203V27.1484Z" fill="white"/>
<path d="M65.8203 30.6641H62.3047V34.1797H65.8203V30.6641Z" fill="white"/>
<path d="M65.8203 37.6953H62.3047V41.2109H65.8203V37.6953Z" fill="white"/>
<path d="M65.8203 41.2109H62.3047V44.7266H65.8203V41.2109Z" fill="white"/>
<path d="M65.8203 51.7578H62.3047V55.2734H65.8203V51.7578Z" fill="white"/>
<path d="M65.8203 58.7891H62.3047V62.3047H65.8203V58.7891Z" fill="white"/>
<path d="M65.8203 62.3047H62.3047V65.8203H65.8203V62.3047Z" fill="white"/>
<path d="M65.8203 65.8203H62.3047V69.3359H65.8203V65.8203Z" fill="white"/>
<path d="M65.8203 69.3359H62.3047V72.8516H65.8203V69.3359Z" fill="white"/>
<path d="M65.8203 72.8516H62.3047V76.3672H65.8203V72.8516Z" fill="white"/>
<path d="M65.8203 76.3672H62.3047V79.8828H65.8203V76.3672Z" fill="white"/>
<path d="M65.8203 83.3984H62.3047V86.9141H65.8203V83.3984Z" fill="white"/>
<path d="M65.8203 86.9141H62.3047V90.4297H65.8203V86.9141Z" fill="white"/>
<path d="M65.8203 90.4297H62.3047V93.9453H65.8203V90.4297Z" fill="white"/>
<path d="M69.3359 34.1797H65.8203V37.6953H69.3359V34.1797Z" fill="white"/>
<path d="M69.3359 37.6953H65.8203V41.2109H69.3359V37.6953Z" fill="white"/>
<path d="M69.3359 41.2109H65.8203V44.7266H69.3359V41.2109Z" fill="white"/>
<path d="M69.3359 55.2734H65.8203V58.7891H69.3359V55.2734Z" fill="white"/>
<path d="M69.3359 62.3047H65.8203V65.8203H69.3359V62.3047Z" fill="white"/>
<path d="M69.3359 76.3672H65.8203V79.8828H69.3359V76.3672Z" fill="white"/>
<path d="M72.8516 34.1797H69.3359V37.6953H72.8516V34.1797Z" fill="white"/>
<path d="M72.8516 37.6953H69.3359V41.2109H72.8516V37.6953Z" fill="white"/>
<path d="M72.8516 44.7266H69.3359V48.2422H72.8516V44.7266Z" fill="white"/>
<path d="M72.8516 48.2422H69.3359V51.7578H72.8516V48.2422Z" fill="white"/>
<path d="M72.8516 51.7578H69.3359V55.2734H72.8516V51.7578Z" fill="white"/>
<path d="M72.8516 58.7891H69.3359V62.3047H72.8516V58.7891Z" fill="white"/>
<path d="M72.8516 62.3047H69.3359V65.8203H72.8516V62.3047Z" fill="white"/>
<path d="M72.8516 69.3359H69.3359V72.8516H72.8516V69.3359Z" fill="white"/>
<path d="M72.8516 76.3672H69.3359V79.8828H72.8516V76.3672Z" fill="white"/>
<path d="M72.8516 83.3984H69.3359V86.9141H72.8516V83.3984Z" fill="white"/>
<path d="M76.3672 37.6953H72.8516V41.2109H76.3672V37.6953Z" fill="white"/>
<path d="M76.3672 44.7266H72.8516V48.2422H76.3672V44.7266Z" fill="white"/>
<path d="M76.3672 51.7578H72.8516V55.2734H76.3672V51.7578Z" fill="white"/>
<path d="M76.3672 55.2734H72.8516V58.7891H76.3672V55.2734Z" fill="white"/>
<path d="M76.3672 58.7891H72.8516V62.3047H76.3672V58.7891Z" fill="white"/>
<path d="M76.3672 62.3047H72.8516V65.8203H76.3672V62.3047Z" fill="white"/>
<path d="M76.3672 76.3672H72.8516V79.8828H76.3672V76.3672Z" fill="white"/>
<path d="M76.3672 83.3984H72.8516V86.9141H76.3672V83.3984Z" fill="white"/>
<path d="M76.3672 90.4297H72.8516V93.9453H76.3672V90.4297Z" fill="white"/>
<path d="M79.8828 37.6953H76.3672V41.2109H79.8828V37.6953Z" fill="white"/>
<path d="M79.8828 44.7266H76.3672V48.2422H79.8828V44.7266Z" fill="white"/>
<path d="M79.8828 62.3047H76.3672V65.8203H79.8828V62.3047Z" fill="white"/>
<path d="M79.8828 65.8203H76.3672V69.3359H79.8828V65.8203Z" fill="white"/>
<path d="M79.8828 69.3359H76.3672V72.8516H79.8828V69.3359Z" fill="white"/>
<path d="M79.8828 72.8516H76.3672V76.3672H79.8828V72.8516Z" fill="white"/>
<path d="M79.8828 76.3672H76.3672V79.8828H79.8828V76.3672Z" fill="white"/>
<path d="M79.8828 83.3984H76.3672V86.9141H79.8828V83.3984Z" fill="white"/>
<path d="M79.8828 86.9141H76.3672V90.4297H79.8828V86.9141Z" fill="white"/>
<path d="M83.3984 48.2422H79.8828V51.7578H83.3984V48.2422Z" fill="white"/>
<path d="M83.3984 51.7578H79.8828V55.2734H83.3984V51.7578Z" fill="white"/>
<path d="M83.3984 72.8516H79.8828V76.3672H83.3984V72.8516Z" fill="white"/>
<path d="M83.3984 83.3984H79.8828V86.9141H83.3984V83.3984Z" fill="white"/>
<path d="M83.3984 90.4297H79.8828V93.9453H83.3984V90.4297Z" fill="white"/>
<path d="M86.9141 37.6953H83.3984V41.2109H86.9141V37.6953Z" fill="white"/>
<path d="M86.9141 41.2109H83.3984V44.7266H86.9141V41.2109Z" fill="white"/>
<path d="M86.9141 44.7266H83.3984V48.2422H86.9141V44.7266Z" fill="white"/>
<path d="M86.9141 51.7578H83.3984V55.2734H86.9141V51.7578Z" fill="white"/>
<path d="M86.9141 55.2734H83.3984V58.7891H86.9141V55.2734Z" fill="white"/>
<path d="M86.9141 62.3047H83.3984V65.8203H86.9141V62.3047Z" fill="white"/>
<path d="M86.9141 65.8203H83.3984V69.3359H86.9141V65.8203Z" fill="white"/>
<path d="M86.9141 76.3672H83.3984V79.8828H86.9141V76.3672Z" fill="white"/>
<path d="M86.9141 90.4297H83.3984V93.9453H86.9141V90.4297Z" fill="white"/>
<path d="M90.4297 34.1797H86.9141V37.6953H90.4297V34.1797Z" fill="white"/>
<path d="M90.4297 37.6953H86.9141V41.2109H90.4297V37.6953Z" fill="white"/>
<path d="M90.4297 44.7266H86.9141V48.2422H90.4297V44.7266Z" fill="white"/>
<path d="M90.4297 69.3359H86.9141V72.8516H90.4297V69.3359Z" fill="white"/>
<path d="M90.4297 79.8828H86.9141V83.3984H90.4297V79.8828Z" fill="white"/>
<path d="M90.4297 83.3984H86.9141V86.9141H90.4297V83.3984Z" fill="white"/>
<path d="M90.4297 90.4297H86.9141V93.9453H90.4297V90.4297Z" fill="white"/>
<path d="M93.9453 37.6953H90.4297V41.2109H93.9453V37.6953Z" fill="white"/>
<path d="M93.9453 41.2109H90.4297V44.7266H93.9453V41.2109Z" fill="white"/>
<path d="M93.9453 48.2422H90.4297V51.7578H93.9453V48.2422Z" fill="white"/>
<path d="M93.9453 51.7578H90.4297V55.2734H93.9453V51.7578Z" fill="white"/>
<path d="M93.9453 58.7891H90.4297V62.3047H93.9453V58.7891Z" fill="white"/>
<path d="M93.9453 62.3047H90.4297V65.8203H93.9453V62.3047Z" fill="white"/>
<path d="M93.9453 76.3672H90.4297V79.8828H93.9453V76.3672Z" fill="white"/>
<path d="M93.9453 79.8828H90.4297V83.3984H93.9453V79.8828Z" fill="white"/>
<path d="M93.9453 90.4297H90.4297V93.9453H93.9453V90.4297Z" fill="white"/>
</mask>
<g mask="url(#mask0_469_417)">
<path d="M93.9453 6.05469H6.05469V93.9453H93.9453V6.05469Z" fill="black"/>
</g>
<mask id="mask1_469_417" style="mask-type:luminance" maskUnits="userSpaceOnUse" x="6" y="6" width="25" height="25">
<path d="M9.57031 6.05469H6.05469V9.57031H9.57031V6.05469Z" fill="white"/>
<path d="M9.57031 9.57031H6.05469V13.0859H9.57031V9.57031Z" fill="white"/>
<path d="M9.57031 13.0859H6.05469V16.6016H9.57031V13.0859Z" fill="white"/>
<path d="M9.57031 16.6016H6.05469V20.1172H9.57031V16.6016Z" fill="white"/>
<path d="M9.57031 20.1172H6.05469V23.6328H9.57031V20.1172Z" fill="white"/>
<path d="M9.57031 23.6328H6.05469V27.1484H9.57031V23.6328Z" fill="white"/>
<path d="M9.57031 27.1484H6.05469V30.6641H9.57031V27.1484Z" fill="white"/>
<path d="M13.0859 6.05469H9.57031V9.57031H13.0859V6.05469Z" fill="white"/>
<path d="M13.0859 27.1484H9.57031V30.6641H13.0859V27.1484Z" fill="white"/>
<path d="M16.6016 6.05469H13.0859V9.57031H16.6016V6.05469Z" fill="white"/>
<path d="M16.6016 27.1484H13.0859V30.6641H16.6016V27.1484Z" fill="white"/>
<path d="M20.1172 6.05469H16.6016V9.57031H20.1172V6.05469Z" fill="white"/>
<path d="M20.1172 27.1484H16.6016V30.6641H20.1172V27.1484Z" fill="white"/>
<path d="M23.6328 6.05469H20.1172V9.57031H23.6328V6.05469Z" fill="white"/>
<path d="M23.6328 27.1484H20.1172V30.6641H23.6328V27.1484Z" fill="white"/>
<path d="M27.1484 6.05469H23.6328V9.57031H27.1484V6.05469Z" fill="white"/>
<path d="M27.1484 27.1484H23.6328V30.6641H27.1484V27.1484Z" fill="white"/>
<path d="M30.6641 6.05469H27.1484V9.57031H30.6641V6.05469Z" fill="white"/>
<path d="M30.6641 9.57031H27.1484V13.0859H30.6641V9.57031Z" fill="white"/>
<path d="M30.6641 13.0859H27.1484V16.6016H30.6641V13.0859Z" fill="white"/>
<path d="M30.6641 16.6016H27.1484V20.1172H30.6641V16.6016Z" fill="white"/>
<path d="M30.6641 20.1172H27.1484V23.6328H30.6641V20.1172Z" fill="white"/>
<path d="M30.6641 23.6328H27.1484V27.1484H30.6641V23.6328Z" fill="white"/>
<path d="M30.6641 27.1484H27.1484V30.6641H30.6641V27.1484Z" fill="white"/>
</mask>
<g mask="url(#mask1_469_417)">
<path d="M30.6641 6.05469H6.05469V30.6641H30.6641V6.05469Z" fill="black"/>
</g>
<mask id="mask2_469_417" style="mask-type:luminance" maskUnits="userSpaceOnUse" x="13" y="13" width="11" height="11">
<path d="M16.6016 13.0859H13.0859V16.6016H16.6016V13.0859Z" fill="white"/>
<path d="M16.6016 16.6016H13.0859V20.1172H16.6016V16.6016Z" fill="white"/>
<path d="M16.6016 20.1172H13.0859V23.6328H16.6016V20.1172Z" fill="white"/>
<path d="M20.1172 13.0859H16.6016V16.6016H20.1172V13.0859Z" fill="white"/>
<path d="M20.1172 16.6016H16.6016V20.1172H20.1172V16.6016Z" fill="white"/>
<path d="M20.1172 20.1172H16.6016V23.6328H20.1172V20.1172Z" fill="white"/>
<path d="M23.6328 13.0859H20.1172V16.6016H23.6328V13.0859Z" fill="white"/>
<path d="M23.6328 16.6016H20.1172V20.1172H23.6328V16.6016Z" fill="white"/>
<path d="M23.6328 20.1172H20.1172V23.6328H23.6328V20.1172Z" fill="white"/>
</mask>
<g mask="url(#mask2_469_417)">
<path d="M23.6328 13.0859H13.0859V23.6328H23.6328V13.0859Z" fill="black"/>
</g>
<mask id="mask3_469_417" style="mask-type:luminance" maskUnits="userSpaceOnUse" x="69" y="6" width="25" height="25">
<path d="M72.8516 6.05469H69.3359V9.57031H72.8516V6.05469Z" fill="white"/>
<path d="M72.8516 9.57031H69.3359V13.0859H72.8516V9.57031Z" fill="white"/>
<path d="M72.8516 13.0859H69.3359V16.6016H72.8516V13.0859Z" fill="white"/>
<path d="M72.8516 16.6016H69.3359V20.1172H72.8516V16.6016Z" fill="white"/>
<path d="M72.8516 20.1172H69.3359V23.6328H72.8516V20.1172Z" fill="white"/>
<path d="M72.8516 23.6328H69.3359V27.1484H72.8516V23.6328Z" fill="white"/>
<path d="M72.8516 27.1484H69.3359V30.6641H72.8516V27.1484Z" fill="white"/>
<path d="M76.3672 6.05469H72.8516V9.57031H76.3672V6.05469Z" fill="white"/>
<path d="M76.3672 27.1484H72.8516V30.6641H76.3672V27.1484Z" fill="white"/>
<path d="M79.8828 6.05469H76.3672V9.57031H79.8828V6.05469Z" fill="white"/>
<path d="M79.8828 27.1484H76.3672V30.6641H79.8828V27.1484Z" fill="white"/>
<path d="M83.3984 6.05469H79.8828V9.57031H83.3984V6.05469Z" fill="white"/>
<path d="M83.3984 27.1484H79.8828V30.6641H83.3984V27.1484Z" fill="white"/>
<path d="M86.9141 6.05469H83.3984V9.57031H86.9141V6.05469Z" fill="white"/>
<path d="M86.9141 27.1484H83.3984V30.6641H86.9141V27.1484Z" fill="white"/>
<path d="M90.4297 6.05469H86.9141V9.57031H90.4297V6.05469Z" fill="white"/>
<path d="M90.4297 27.1484H86.9141V30.6641H90.4297V27.1484Z" fill="white"/>
<path d="M93.9453 6.05469H90.4297V9.57031H93.9453V6.05469Z" fill="white"/>
<path d="M93.9453 9.57031H90.4297V13.0859H93.9453V9.57031Z" fill="white"/>
<path d="M93.9453 13.0859H90.4297V16.6016H93.9453V13.0859Z" fill="white"/>
<path d="M93.9453 16.6016H90.4297V20.1172H93.9453V16.6016Z" fill="white"/>
<path d="M93.9453 20.1172H90.4297V23.6328H93.9453V20.1172Z" fill="white"/>
<path d="M93.9453 23.6328H90.4297V27.1484H93.9453V23.6328Z" fill="white"/>
<path d="M93.9453 27.1484H90.4297V30.6641H93.9453V27.1484Z" fill="white"/>
</mask>
<g mask="url(#mask3_469_417)">
<path d="M93.9453 6.05469H69.3359V30.6641H93.9453V6.05469Z" fill="black"/>
</g>
<mask id="mask4_469_417" style="mask-type:luminance" maskUnits="userSpaceOnUse" x="76" y="13" width="11" height="11">
<path d="M79.8828 13.0859H76.3672V16.6016H79.8828V13.0859Z" fill="white"/>
<path d="M79.8828 16.6016H76.3672V20.1172H79.8828V16.6016Z" fill="white"/>
<path d="M79.8828 20.1172H76.3672V23.6328H79.8828V20.1172Z" fill="white"/>
<path d="M83.3984 13.0859H79.8828V16.6016H83.3984V13.0859Z" fill="white"/>
<path d="M83.3984 16.6016H79.8828V20.1172H83.3984V16.6016Z" fill="white"/>
<path d="M83.3984 20.1172H79.8828V23.6328H83.3984V20.1172Z" fill="white"/>
<path d="M86.9141 13.0859H83.3984V16.6016H86.9141V13.0859Z" fill="white"/>
<path d="M86.9141 16.6016H83.3984V20.1172H86.9141V16.6016Z" fill="white"/>
<path d="M86.9141 20.1172H83.3984V23.6328H86.9141V20.1172Z" fill="white"/>
</mask>
<g mask="url(#mask4_469_417)">
<path d="M86.9141 13.0859H76.3672V23.6328H86.9141V13.0859Z" fill="black"/>
</g>
<mask id="mask5_469_417" style="mask-type:luminance" maskUnits="userSpaceOnUse" x="6" y="69" width="25" height="25">
<path d="M9.57031 69.3359H6.05469V72.8516H9.57031V69.3359Z" fill="white"/>
<path d="M9.57031 72.8516H6.05469V76.3672H9.57031V72.8516Z" fill="white"/>
<path d="M9.57031 76.3672H6.05469V79.8828H9.57031V76.3672Z" fill="white"/>
<path d="M9.57031 79.8828H6.05469V83.3984H9.57031V79.8828Z" fill="white"/>
<path d="M9.57031 83.3984H6.05469V86.9141H9.57031V83.3984Z" fill="white"/>
<path d="M9.57031 86.9141H6.05469V90.4297H9.57031V86.9141Z" fill="white"/>
<path d="M9.57031 90.4297H6.05469V93.9453H9.57031V90.4297Z" fill="white"/>
<path d="M13.0859 69.3359H9.57031V72.8516H13.0859V69.3359Z" fill="white"/>
<path d="M13.0859 90.4297H9.57031V93.9453H13.0859V90.4297Z" fill="white"/>
<path d="M16.6016 69.3359H13.0859V72.8516H16.6016V69.3359Z" fill="white"/>
<path d="M16.6016 90.4297H13.0859V93.9453H16.6016V90.4297Z" fill="white"/>
<path d="M20.1172 69.3359H16.6016V72.8516H20.1172V69.3359Z" fill="white"/>
<path d="M20.1172 90.4297H16.6016V93.9453H20.1172V90.4297Z" fill="white"/>
<path d="M23.6328 69.3359H20.1172V72.8516H23.6328V69.3359Z" fill="white"/>
<path d="M23.6328 90.4297H20.1172V93.9453H23.6328V90.4297Z" fill="white"/>
<path d="M27.1484 69.3359H23.6328V72.8516H27.1484V69.3359Z" fill="white"/>
<path d="M27.1484 90.4297H23.6328V93.9453H27.1484V90.4297Z" fill="white"/>
<path d="M30.6641 69.3359H27.1484V72.8516H30.6641V69.3359Z" fill="white"/>
<path d="M30.6641 72.8516H27.1484V76.3672H30.6641V72.8516Z" fill="white"/>
<path d="M30.6641 76.3672H27.1484V79.8828H30.6641V76.3672Z" fill="white"/>
<path d="M30.6641 79.8828H27.1484V83.3984H30.6641V79.8828Z" fill="white"/>
<path d="M30.6641 83.3984H27.1484V86.9141H30.6641V83.3984Z" fill="white"/>
<path d="M30.6641 86.9141H27.1484V90.4297H30.6641V86.9141Z" fill="white"/>
<path d="M30.6641 90.4297H27.1484V93.9453H30.6641V90.4297Z" fill="white"/>
</mask>
<g mask="url(#mask5_469_417)">
<path d="M30.6641 69.3359H6.05469V93.9453H30.6641V69.3359Z" fill="black"/>
</g>
<mask id="mask6_469_417" style="mask-type:luminance" maskUnits="userSpaceOnUse" x="13" y="76" width="11" height="11">
<path d="M16.6016 76.3672H13.0859V79.8828H16.6016V76.3672Z" fill="white"/>
<path d="M16.6016 79.8828H13.0859V83.3984H16.6016V79.8828Z" fill="white"/>
<path d="M16.6016 83.3984H13.0859V86.9141H16.6016V83.3984Z" fill="white"/>
<path d="M20.1172 76.3672H16.6016V79.8828H20.1172V76.3672Z" fill="white"/>
<path d="M20.1172 79.8828H16.6016V83.3984H20.1172V79.8828Z" fill="white"/>
<path d="M20.1172 83.3984H16.6016V86.9141H20.1172V83.3984Z" fill="white"/>
<path d="M23.6328 76.3672H20.1172V79.8828H23.6328V76.3672Z" fill="white"/>
<path d="M23.6328 79.8828H20.1172V83.3984H23.6328V79.8828Z" fill="white"/>
<path d="M23.6328 83.3984H20.1172V86.9141H23.6328V83.3984Z" fill="white"/>
</mask>
<g mask="url(#mask6_469_417)">
<path d="M23.6328 76.3672H13.0859V86.9141H23.6328V76.3672Z" fill="black"/>
</g>
</g>
<defs>
<clipPath id="clip0_469_417">
<rect width="100" height="100" rx="8.98876" fill="white"/>
</clipPath>
</defs>
</svg>
